# xmcd CD database file
#
# Track frame offsets:
#	180
#	25414
#	52826
#	75478
#	100724
#	124548
#	146574
#	172974
#
# Disc length: 2663 seconds
#
# Revision: 1
# Processed by: cddbd v1.5.1PL2 Copyright (c) Steve Scherf et al.
# Submitted via: CDex 1.51
#
DISCID=570a6508
DTITLE=Karamjit Anmol - Aashiq Bha Ji
DYEAR=1900
DGENRE=Punjabi Bhangra
TTITLE0=Aashiq Bha Ji
TTITLE1=Dee Jaai Shardhanjali
TTITLE2=Tere Uttey Aa Gaya Dil
TTITLE3=Pa Shagna Da Chura
TTITLE4=Roop Nalon Jyada Bewafai
TTITLE5=Be-Dardan Da Captain
TTITLE6=Inch-Inch Doonga Tera Naam
TTITLE7=Tere Husan Di Charcha
EXTD=
EXTT0=
EXTT1=
EXTT2=
EXTT3=
EXTT4=
EXTT5=
EXTT6=
EXTT7=
PLAYORDER=
